<svg width="189" height="150" viewBox="0 0 189 150" fill="none" xmlns="http://www.w3.org/2000/svg">
<path d="M127.714 107.995C134.613 97.4686 132.715 82.5639 123.475 74.7014L99.6224 54.416L74.6362 92.5414L98.4882 112.826C107.73 120.686 120.814 118.524 127.714 107.995Z" fill="#B04A57"/>
<path d="M110.965 120C110.964 120 110.964 120 110.964 120C105.972 120 101.213 118.197 97.2027 114.786L71.6299 93.0383L99.1852 50.9924L124.758 72.7413C134.932 81.3981 137.029 97.8697 129.433 109.459C125.043 116.158 118.312 120 110.965 120ZM77.6402 92.0444L99.7716 110.866C103.034 113.641 106.905 115.107 110.964 115.107C116.943 115.108 122.42 111.982 125.992 106.532C132.171 97.1039 130.465 83.7036 122.188 76.6606L100.057 57.8394L77.6402 92.0444Z" fill="white"/>
<path d="M85.9524 74.8883C90.9209 66.9439 97.2833 61.1496 103.802 57.9725L80.5257 38.1759C71.2831 30.314 58.1992 32.4763 51.3002 43.0046C44.402 53.5316 46.2991 68.443 55.5402 76.3L78.1836 95.5602C79.2248 88.6888 81.8112 81.5109 85.9524 74.8883Z" fill="#171F3F"/>
<path d="M79.7043 99.9064L54.2559 78.26C49.3269 74.0695 46.1262 67.9413 45.2431 61.0047C44.36 54.0685 45.9002 47.1563 49.5799 41.5413C53.9694 34.8423 60.7007 31 68.0474 31C73.0399 31 77.7991 32.8035 81.8104 36.2156L108.072 58.5518L104.647 60.2215C98.26 63.3344 92.2418 69.0475 87.7014 76.3079C83.884 82.4125 81.3245 89.2135 80.2999 95.9765L79.7043 99.9064ZM68.0474 35.8921C62.0691 35.8921 56.5925 39.0179 53.021 44.4678C50.0277 49.0358 48.7746 54.6592 49.4929 60.3023C50.2113 65.9458 52.815 70.9308 56.8245 74.3397L76.7921 91.3238C78.2 85.1322 80.7284 79.0265 84.2037 73.4692C88.4226 66.723 93.8331 61.177 99.6942 57.5315L79.2414 40.1358C75.9776 37.3596 72.1069 35.8921 68.0474 35.8921Z" fill="white"/>
<path d="M37.0312 133.445C30.1172 131.492 24.9023 128.27 21.3867 123.777C17.9102 119.324 16.1719 113.426 16.1719 106.082V94.4219C16.1719 84.9297 12.0312 80.1836 3.75 80.1836V71.6875C12.0312 71.6875 16.1719 66.9609 16.1719 57.5078V45.3203C16.25 38.1719 17.9883 32.4102 21.3867 28.0352C24.8242 23.6211 30.0391 20.418 37.0312 18.4258L39.2578 25.1641C31.0938 27.7813 27.0117 34.5977 27.0117 45.6133V57.4492C27.0117 66.3164 23.75 72.4883 17.2266 75.9648C23.75 79.4805 27.0117 85.7109 27.0117 94.6562V106.727C27.1289 117.469 31.2109 124.129 39.2578 126.707L37.0312 133.445Z" fill="#171F3F"/>
<path d="M140.113 126.707C148.043 124.168 152.145 117.703 152.418 107.312V94.4219C152.418 85.3984 155.953 79.2461 163.023 75.9648C155.953 72.7617 152.418 66.6094 152.418 57.5078V45.6133C152.418 34.5977 148.336 27.7813 140.172 25.1641L142.398 18.4258C149.312 20.3789 154.508 23.5625 157.984 27.9766C161.461 32.3516 163.219 38.1523 163.258 45.3789V57.6836C163.258 67.0195 167.398 71.6875 175.68 71.6875V80.1836C167.398 80.1836 163.258 84.9297 163.258 94.4219V106.258C163.258 113.602 161.48 119.48 157.926 123.895C154.41 128.309 149.234 131.492 142.398 133.445L140.113 126.707Z" fill="#171F3F"/>
</svg>
